<?xml version="1.0" encoding="UTF-8"?>
<svg version="1.1" xmlns="http://www.w3.org/2000/svg" width="512" height="512">
<path d="M0 0 C3.74991546 2.49994364 7.00341133 5.38296847 8.44212341 9.81427002 C8.8161421 11.89526421 8.9328857 13.79620592 8.92602539 15.90917969 C8.92594986 16.68968689 8.92587433 17.47019409 8.92579651 18.27435303 C8.92063522 19.10678528 8.91547394 19.93921753 8.91015625 20.796875 C8.90803383 22.08685394 8.90803383 22.08685394 8.90586853 23.40289307 C8.90028097 26.14363109 8.88773075 28.88428676 8.875 31.625 C8.86998339 33.4856759 8.86542077 35.34635309 8.86132812 37.20703125 C8.85031561 41.76305246 8.83305951 46.31901228 8.8125 50.875 C9.46041504 50.92760986 10.10833008 50.98021973 10.77587891 51.03442383 C31.67593242 52.89697718 49.17056867 63.11882101 62.8125 78.875 C69.8125 88.61300738 69.8125 88.61300738 69.8125 91.875 C70.54299561 92.15190674 71.27349121 92.42881348 72.02612305 92.71411133 C76.47489739 94.56760489 80.49571847 97.09222341 84.625 99.5625 C85.48931641 100.06716797 86.35363281 100.57183594 87.24414062 101.09179688 C101.776642 109.767426 101.776642 109.767426 103.8125 115.875 C104.67488383 125.16750539 102.92492495 133.95095461 100.98657227 142.97705078 C100.4969405 145.26429199 100.02951449 147.55530655 99.56445312 149.84765625 C99.25650154 151.32318716 98.94730118 152.79845811 98.63671875 154.2734375 C98.43026985 155.2860817 98.43026985 155.2860817 98.21965027 156.31918335 C95.05421794 170.83253165 83.15996384 177.22104264 71.703125 185.140625 C69.34766179 186.76889823 67.14577338 188.41919308 64.921875 190.234375 C62.8125 191.875 62.8125 191.875 60.8125 191.875 C60.81694122 192.44224289 60.82138245 193.00948578 60.82595825 193.59391785 C60.87095683 199.61475038 60.9006755 205.63553361 60.92236328 211.65649414 C60.93228743 213.88958686 60.94583106 216.12266707 60.96337891 218.35571289 C61.1045303 236.8091817 60.82220674 255.31072128 56.625 273.375 C56.30136475 274.7971582 56.30136475 274.7971582 55.97119141 276.24804688 C52.5753171 290.63450943 47.83365184 304.23880333 41.5625 317.625 C41.15757324 318.49833984 40.75264648 319.37167969 40.33544922 320.27148438 C38.21371511 324.63555134 36.05215143 328.64839392 33.04370117 332.46264648 C23.46965343 344.95531325 23.30549802 356.07786254 23.625 371.4375 C23.6319753 373.72069331 23.63396222 376.00390752 23.63085938 378.28710938 C23.63401147 383.8179647 23.69829738 389.34537947 23.8125 394.875 C24.97942383 395.08431152 24.97942383 395.08431152 26.16992188 395.29785156 C35.90385253 397.42377655 43.62411147 406.8928638 48.8125 414.875 C54.54540924 425.90540766 55.59720271 438.05346946 53.12890625 450.25390625 C48.90432547 462.57706098 40.74692655 471.72000725 29.828125 478.515625 C20.29835028 482.81143018 10.98454204 483.35128797 0.68823242 483.26611328 C-1.61795407 483.25004908 -3.92238253 483.26602636 -6.22851562 483.28515625 C-22.78460986 483.30937959 -35.37003841 478.94512143 -49.1875 469.875 C-50.13625 470.761875 -51.085 471.64875 -52.0625 472.5625 C-62.39199981 481.37173069 -73.65946123 483.18104579 -86.82997131 483.14242554 C-87.9738503 483.14695665 -89.11772928 483.15148776 -90.29627126 483.15615618 C-94.11430375 483.1687768 -97.93219316 483.16718128 -101.75024414 483.16552734 C-104.49405451 483.17042983 -107.23785495 483.17826394 -109.98165894 483.18588257 C-116.65338585 483.20245446 -123.32507742 483.20799043 -129.9968232 483.20910732 C-135.42506147 483.21005984 -140.85328815 483.21418026 -146.28152275 483.22050858 C-161.69715018 483.23811245 -177.11274983 483.24734906 -192.52838738 483.24584763 C-193.35844093 483.24576772 -194.18849448 483.2456878 -195.04370117 483.24560547 C-196.29031558 483.24548283 -196.29031558 483.24548283 -197.56211411 483.24535771 C-211.01732243 483.24454558 -224.47241859 483.26366692 -237.92759449 483.2918822 C-251.76835652 483.32067516 -265.60906398 483.3344189 -279.4498567 483.33269465 C-287.21023671 483.33203284 -294.97049923 483.33743255 -302.73085213 483.35905075 C-309.34088952 483.37734742 -315.95075619 483.381541 -322.56080807 483.3680319 C-325.92701421 483.36154384 -329.29262913 483.36344584 -332.6588459 483.3787384 C-355.70371451 483.47659803 -374.38831468 481.87500965 -391.9375 465.25390625 C-405.0585511 451.38112827 -408.83630971 435.82958929 -408.5 417.3125 C-408.2263654 410.68142158 -406.88412912 404.94452886 -404.1875 398.875 C-403.58615234 397.48667969 -403.58615234 397.48667969 -402.97265625 396.0703125 C-395.73697802 381.26338835 -383.2408731 370.82479621 -367.75 365.4375 C-360.70821923 363.25347064 -354.01267833 362.67056876 -346.6875 362.625 C-345.44419922 362.5940625 -345.44419922 362.5940625 -344.17578125 362.5625 C-339.08008523 362.53009494 -335.5947582 363.03356707 -331.1875 365.875 C-326.51572657 371.05183002 -325.8396659 374.26853498 -325.90234375 381.109375 C-326.3985952 385.9223343 -328.72564585 388.59034029 -332.25 391.6875 C-335.68969572 393.7957006 -338.72510328 394.01000099 -342.68383789 394.16503906 C-352.43307469 394.55415873 -361.97922107 395.5634999 -369.1875 402.875 C-375.46384602 411.72988998 -377.3431513 419.0029018 -376.1875 429.875 C-373.98465451 436.90622269 -370.64567614 442.41125929 -364.60546875 446.69140625 C-355.68737081 451.05680799 -347.37749445 451.34499813 -337.65234375 451.38671875 C-336.16303554 451.40359247 -334.67374134 451.42174628 -333.1844635 451.44111633 C-329.2933083 451.48833072 -325.40220991 451.51832367 -321.51086426 451.54455566 C-317.52861313 451.57450659 -313.54655725 451.62098642 -309.56445312 451.66601562 C-301.77223292 451.75172308 -293.979998 451.81921172 -286.1875 451.875 C-286.19026538 451.25676141 -286.19303076 450.63852282 -286.19587994 450.00154972 C-286.26244862 434.88244808 -286.31192957 419.76339214 -286.34293652 404.64418125 C-286.35833398 397.33231367 -286.37928522 390.02054456 -286.41381836 382.70874023 C-286.44394101 376.3276787 -286.46312658 369.94668857 -286.46976548 363.5655579 C-286.47363958 360.19407496 -286.48422317 356.82295627 -286.50469017 353.45150948 C-286.58731898 339.26525898 -286.48182967 325.73024747 -283.1875 311.875 C-282.9615062 310.90193909 -282.73551239 309.92887817 -282.50267029 308.92633057 C-281.94660068 306.63179607 -281.3138412 304.38299304 -280.625 302.125 C-280.25145386 300.89801392 -280.25145386 300.89801392 -279.87036133 299.64624023 C-275.0324623 284.53587371 -267.85678881 270.44152056 -258.1875 257.875 C-257.589375 257.05644531 -256.99125 256.23789062 -256.375 255.39453125 C-233.50771121 225.18408291 -198.78875141 205.25436651 -161.34277344 199.94506836 C-155.46988139 199.20001051 -149.63720395 198.83148476 -143.71875 198.67578125 C-142.57905762 198.64444092 -141.43936523 198.61310059 -140.26513672 198.58081055 C-138.02233389 198.52831672 -135.7790187 198.49360908 -133.53564453 198.47973633 C-122.14864085 198.24487174 -113.61824084 195.33421814 -105.35546875 187.38671875 C-98.72320225 179.70284963 -97.06378979 171.94599842 -96.9765625 162.078125 C-96.94844647 160.29556448 -96.91978184 158.51301255 -96.890625 156.73046875 C-96.84978142 153.94678436 -96.81286735 151.16325192 -96.78613281 148.37939453 C-96.4891157 119.86063091 -90.21002404 95.40600163 -69.9453125 74.5625 C-61.5644323 66.39529663 -51.84872758 58.41004947 -40.1875 55.875 C-40.08856445 55.21975342 -39.98962891 54.56450684 -39.88769531 53.8894043 C-38.9752558 49.96126946 -37.50696618 46.37173565 -35.984375 42.64453125 C-35.66470764 41.85406906 -35.34504028 41.06360687 -35.01568604 40.24919128 C-34.33862301 38.57825663 -33.65935353 36.90821455 -32.97802734 35.23901367 C-31.94907872 32.71589259 -30.92911624 30.18927818 -29.91015625 27.66210938 C-20.10401317 3.45604744 -20.10401317 3.45604744 -14.1875 -0.125 C-9.20670617 -1.78526461 -4.88476371 -1.72403425 0 0 Z M-50.1875 98.875 C-60.67763222 111.95116879 -65.24985119 125.3845825 -65.3984375 142.0703125 C-65.42652212 143.85677974 -65.45518667 145.64323795 -65.484375 147.4296875 C-65.52540499 150.207027 -65.56234916 152.98420073 -65.58886719 155.76171875 C-65.81290217 177.42358351 -69.29240797 195.82731508 -85.1875 211.875 C-99.54008145 224.28512681 -115.03742508 229.19312271 -133.75 229.375 C-168.7126314 230.21292453 -199.32115923 240.3181673 -224.1875 265.875 C-244.15449461 287.46485629 -255.61060258 314.83527513 -255.41455078 344.25292969 C-255.41484283 345.42511047 -255.41513489 346.59729126 -255.41543579 347.80499268 C-255.41405509 351.63569844 -255.39855358 355.4662037 -255.3828125 359.296875 C-255.37907788 361.97015715 -255.37613451 364.64342855 -255.37423706 367.31671143 C-255.36805419 373.60622144 -255.35168725 379.8956608 -255.33153808 386.18513989 C-255.30907887 393.35334918 -255.29816061 400.52156209 -255.28814721 407.68979788 C-255.26731767 422.41823449 -255.23220473 437.146616 -255.1875 451.875 C-232.23050089 451.96845366 -209.27353316 452.03898432 -186.31638241 452.08224869 C-175.65690183 452.10287129 -164.99753947 452.13098623 -154.33813477 452.17675781 C-145.04707321 452.21663469 -135.75609728 452.242435 -126.46495253 452.25135398 C-121.54562345 452.25656726 -116.6265393 452.26881424 -111.70728874 452.29792023 C-107.07553783 452.3251027 -102.44413237 452.33343925 -97.81230927 452.32743073 C-96.11398249 452.32852969 -94.41564396 452.33646676 -92.71738625 452.3518219 C-90.39413156 452.37179484 -88.07217228 452.36691354 -85.74888611 452.35601807 C-83.80067664 452.36154882 -83.80067664 452.36154882 -81.8131094 452.36719131 C-76.20774898 451.6062407 -72.5115447 449.44294768 -68.8125 445.0625 C-66.67578931 440.87125979 -65.36686182 437.44794207 -66.8515625 432.79296875 C-69.18099543 427.68904863 -72.09668144 424.42040928 -77.1875 421.875 C-80.14288455 421.75386692 -83.07865945 421.68921355 -86.03515625 421.6640625 C-87.85612842 421.63597063 -89.67709183 421.60730604 -91.49804688 421.578125 C-94.36579932 421.53704182 -97.23339231 421.50015358 -100.10131836 421.47363281 C-102.87127554 421.44580128 -105.64049077 421.39990668 -108.41015625 421.3515625 C-109.25425552 421.34830963 -110.0983548 421.34505676 -110.96803284 421.34170532 C-116.55937894 421.2278709 -122.23537883 420.67739822 -127.1875 417.875 C-129.53729319 414.07850949 -130.31161346 410.50901175 -130.34521484 406.09082031 C-130.36060806 404.63219574 -130.36060806 404.63219574 -130.37631226 403.144104 C-130.38726425 401.5645694 -130.38726425 401.5645694 -130.3984375 399.953125 C-130.42654223 397.70702441 -130.45520686 395.46093078 -130.484375 393.21484375 C-130.5253452 389.68701646 -130.56224103 386.15931384 -130.58886719 382.63134766 C-130.4355144 358.94876227 -130.4355144 358.94876227 -137.6875 336.6875 C-138.02861816 336.02951416 -138.36973633 335.37152832 -138.72119141 334.69360352 C-146.86862477 319.76508779 -159.56826456 310.90016206 -175.1875 304.875 C-176.88066061 304.18030616 -178.56883068 303.47323031 -180.25 302.75 C-181.28833984 302.31300781 -181.28833984 302.31300781 -182.34765625 301.8671875 C-185.761499 300.02617676 -187.01866332 298.30553353 -188.4375 294.6875 C-189.39978599 289.79587955 -189.72001728 285.55542598 -187.17578125 281.10546875 C-183.58271365 276.44694892 -180.46891338 275.17073877 -174.8125 274.4375 C-156.69908608 275.04806451 -139.33286983 287.42821223 -127.1875 299.875 C-126.37667969 300.67679688 -125.56585938 301.47859375 -124.73046875 302.3046875 C-105.44611788 322.34464326 -101.32307407 348.27676908 -100.625 374.9375 C-100.58172008 376.48633766 -100.53810308 378.03516594 -100.49414062 379.58398438 C-100.38803934 383.34755932 -100.28650464 387.11123195 -100.1875 390.875 C-99.36548096 390.90005615 -98.54346191 390.9251123 -97.6965332 390.95092773 C-93.96420626 391.06712655 -90.23211683 391.18974505 -86.5 391.3125 C-84.55963867 391.37147461 -84.55963867 391.37147461 -82.58007812 391.43164062 C-81.33291016 391.47353516 -80.08574219 391.51542969 -78.80078125 391.55859375 C-77.65391846 391.59525146 -76.50705566 391.63190918 -75.32543945 391.66967773 C-72.51162906 391.85379152 -69.9390452 392.29317121 -67.1875 392.875 C-67.18385437 392.04085571 -67.18020874 391.20671143 -67.17645264 390.34729004 C-67.13848565 382.46169354 -67.08153461 374.57650697 -67.00359726 366.69120026 C-66.96419515 362.63786775 -66.93197137 358.58475011 -66.91650391 354.53125 C-66.90128896 350.61467978 -66.86675909 346.69870057 -66.81919098 342.78239441 C-66.80442672 341.29303646 -66.79646184 339.8035941 -66.79561615 338.31416321 C-66.77894892 323.67042877 -66.77894892 323.67042877 -62.1875 316.875 C-57.95018331 313.64656824 -53.768367 313.35211793 -48.58984375 313.5234375 C-44.05915254 314.18646548 -41.38082754 316.41762306 -38.55039978 319.87434387 C-36.54153398 324.29720427 -36.78061723 328.39418249 -36.81860352 333.19799805 C-36.8129538 334.75507729 -36.8129538 334.75507729 -36.80718994 336.34361267 C-36.80075974 338.59545171 -36.80108536 340.8473179 -36.80737495 343.09915733 C-36.81648819 346.66881278 -36.80625674 350.23794325 -36.79075623 353.80757141 C-36.75067159 363.95593441 -36.74944929 374.10425655 -36.75170898 384.25268555 C-36.75176021 390.46366462 -36.7325262 396.67436172 -36.70237541 402.88526344 C-36.69158332 406.39168903 -36.70366363 409.89756862 -36.71620178 413.40397644 C-36.7072918 415.57099945 -36.69721548 417.73801808 -36.68579102 419.9050293 C-36.69553452 420.87110107 -36.70527802 421.83717285 -36.71531677 422.83251953 C-36.63330771 430.66964545 -34.524758 436.97957 -30.5 443.6875 C-22.10257142 451.63101352 -13.40352559 452.08068649 -2.375 452.125 C-1.10333984 452.145625 0.16832031 452.16625 1.47851562 452.1875 C2.70892578 452.19265625 3.93933594 452.1978125 5.20703125 452.203125 C6.89082886 452.21714355 6.89082886 452.21714355 8.60864258 452.23144531 C13.56908929 451.67957057 16.79559358 450.00184225 20.125 446.3125 C23.22408224 441.83604787 23.45464742 438.23828758 22.8125 432.875 C20.42874407 428.01580521 17.61988453 425.32239576 12.8125 422.875 C10.98718462 422.51864186 9.15226397 422.20959535 7.3125 421.9375 C1.93974655 421.09686511 -0.56811941 419.95840374 -4.1875 415.875 C-6.04415701 411.40842299 -6.45244172 407.55725286 -6.49389648 402.74316406 C-6.50222 402.05609375 -6.51054352 401.36902344 -6.51911926 400.66113281 C-6.5430859 398.40423808 -6.55197565 396.14763324 -6.55859375 393.890625 C-6.5675716 392.30889811 -6.57669363 390.72717204 -6.58595276 389.14544678 C-6.60241008 385.83359725 -6.61013666 382.52184841 -6.61303711 379.20996094 C-6.61841166 374.9890112 -6.6560663 370.76902264 -6.70178127 366.54834366 C-6.73168954 363.28127688 -6.73876366 360.0144375 -6.73976326 356.74724579 C-6.74393982 355.19245765 -6.75626988 353.63766721 -6.77728081 352.08301544 C-6.92140444 340.49512585 -4.90349345 332.89910255 2 323.4375 C13.6548906 307.18667215 21.0417913 288.28863482 25.625 268.9375 C25.82005127 268.12949951 26.01510254 267.32149902 26.21606445 266.48901367 C30.76263091 245.81787982 30.16749045 224.47174673 30.19335938 203.43652344 C30.19933779 199.51213484 30.23652272 195.58828372 30.2734375 191.6640625 C30.26839203 190.46721832 30.26334656 189.27037415 30.25814819 188.03726196 C30.33343409 181.70129933 30.45838373 177.64140782 34.8125 172.875 C37.6328125 170.55859375 37.6328125 170.55859375 40.9375 168.3125 C42.17470912 167.4521535 43.41167535 166.59145765 44.6484375 165.73046875 C46.82764441 164.23338853 49.0095536 162.74032919 51.19238281 161.24853516 C53.65886509 159.55435126 56.11090129 157.8406273 58.5625 156.125 C59.34898926 155.59447021 60.13547852 155.06394043 60.94580078 154.51733398 C65.36083783 151.4149933 67.7608422 149.41471856 68.8125 143.875 C69.02132813 143.029375 69.23015625 142.18375 69.4453125 141.3125 C69.68894531 140.1059375 69.68894531 140.1059375 69.9375 138.875 C70.10507812 138.070625 70.27265625 137.26625 70.4453125 136.4375 C70.876503 133.42834078 71.13757103 130.91272432 70.8125 127.875 C68.78559819 125.89396845 68.78559819 125.89396845 65.95703125 124.5078125 C64.43432617 123.64349609 64.43432617 123.64349609 62.88085938 122.76171875 C61.80642578 122.18035156 60.73199219 121.59898437 59.625 121 C52.01468137 116.86244131 46.67326103 113.76968777 42.8125 105.875 C35.59702322 94.57345547 27.42627378 86.29355944 14.0859375 82.9375 C10.34564307 82.13959509 6.58908804 81.47925409 2.8125 80.875 C1.67167969 80.68421875 0.53085937 80.4934375 -0.64453125 80.296875 C-18.92969798 78.11958944 -37.71670696 85.33040091 -50.1875 98.875 Z " fill="#000000" transform="translate(408.1875,15.125)"/>
</svg>
